# xmcd
#
# Track frame offsets: 
#        150
#        14005
#        28962
#        46345
#        63682
#        78470
#        94062
#        106510
#        123077
#        139467
#
# Disc length: 2048 seconds
#
# Revision: 3
# Processed by: cddbd v1.5.2PL0 Copyright (c) Steve Scherf et al.
# Submitted via: ExactAudioCopy v1.0b1
#
DISCID=8607fe0a
DTITLE=Various Artist - Greatest Country Hits Of The 80's 1985
DYEAR=1989
DGENRE=Country
TTITLE0=Willie Nelson - Highwayman
TTITLE1=Rosanne Cash - I Don't Know Why You Don't Want Me
TTITLE2=Ricky Skaggs - Country Boy
TTITLE3=Ray Charles And Willie Nelson - Seven Spanish Angels
TTITLE4=George Jones - Who's Gonna Fill Their Shoes
TTITLE5=Exile - Crazy For Your Love
TTITLE6=Janie Frickie - She's Single Again
TTITLE7=Tammy Wynette (With Mark Gray) - Sometimes When We Touch
TTITLE8=Marle Haggard (With Janie Frickie) - A Place To Fall Apart
TTITLE9=Charly McClain - Radio Heart
EXTD=
EXTT0=Willie Nelson
EXTT1=Rosanne Cash
EXTT2=Ricky Skaggs
EXTT3=Ray Charles and Willie Nelson
EXTT4=George Jones
EXTT5=Exile
EXTT6=Janie Frickie
EXTT7=Tammy Wynette
EXTT8=Merle Haggard
EXTT9=Charley McClain
PLAYORDER=
